<?xml version="1.0" encoding="UTF-8"?>
<svg id="Capa_1" xmlns="http://www.w3.org/2000/svg" version="1.1" viewBox="0 0 500 200">
  <!-- Generator: Adobe Illustrator 29.3.0, SVG Export Plug-In . SVG Version: 2.1.0 Build 146)  -->
  <defs>
    <style>
      .st0 {
        fill: #92cfce;
      }

      .st1 {
        fill: #ffcf47;
      }

      .st2 {
        fill: #e87577;
      }
    </style>
  </defs>
  <g>
    <path class="st0" d="M119.55,17.04v-5.54c0-.92-.75-1.67-1.67-1.67h-16.5c-.46,0-.88.19-1.18.49-.3.3-.49.72-.49,1.18v5.55h-2.37c-2.57,0-4.91,1.05-6.6,2.75-1.69,1.7-2.75,4.04-2.75,6.6v20.97c0,4.72,3.56,8.61,8.12,9.22v3.73h-9.02c-.57,0-1.13.26-1.53.67-.3.3-.53.69-.6,1.1l-10.15,54.16c-.18.97.48,1.77,1.47,1.77h1.8v53.2s-.89,0-.89,0v18.94h31.56v-38.44h1.8v38.44h31.56v-18.93h-.9v-53.2s1.8,0,1.8,0c.44,0,.82-.16,1.09-.43.32-.32.48-.81.38-1.35l-10.16-54.16c-.18-.97-1.14-1.77-2.14-1.77h-9.02v-3.73c2.07-.28,3.95-1.21,5.37-2.62,1.69-1.69,2.75-4.03,2.75-6.6v-20.97c0-5.14-4.21-9.35-9.36-9.35h-2.37,0ZM107.85,148.58v-20.63h3.6v20.63h-3.6ZM80.35,187.02v-12.18h25.26v12.18h-25.26s0,0,0,0ZM105.6,151.83v19.4h-24.36v-43.28h23v23.78l1.36.1ZM113.71,187.01v-12.18h25.26v12.18h-25.26ZM138.07,171.23h-24.36v-19.39l1.36-.1v-23.78h23v43.28s0,0,0,0ZM138.06,124.34h-56.82s0-6.3,0-6.3h56.82s0,6.3,0,6.3h0ZM140.94,114.42h-62.57s9.55-50.95,9.55-50.95h43.46s9.56,50.94,9.56,50.94h0ZM102.86,12.98h13.54v4.06h-13.54s0-4.06,0-4.06ZM99.27,57.26h20.75s0,2.81,0,2.81h-20.75s0-2.81,0-2.81ZM128.13,26.39v20.98c0,1.65-.65,3.2-1.82,4.38s-2.73,1.82-4.38,1.83h-24.58c-3.42,0-6.2-2.78-6.2-6.2v-20.97c0-1.65.65-3.2,1.82-4.38,1.17-1.17,2.73-1.82,4.38-1.82h24.58c3.42,0,6.21,2.78,6.21,6.2h0Z"/>
    <rect class="st0" x="82.94" y="148.92" width="17.28" height="3.15"/>
    <rect class="st0" x="119.09" y="148.9" width="17.28" height="3.15"/>
    <path class="st0" d="M135.51,65.13l8.94,47.63,3.47-.57.47,2.49c-.52.37-1.01.77-1.46,1.23-2.6,2.61-3.81,6.33-3.22,9.96.79,4.87,4.59,8.69,9.46,9.5.5.08,1.01-.08,1.37-.44h0c.36-.36.52-.87.44-1.37l-1.07-6.6c-.06-.37-.25-.71-.54-.95-.34-.29-.77-.79-.9-1.56-.22-1.36.79-2.77,2.16-2.99,1.42-.23,2.76.74,2.99,2.16.12.77-.13,1.38-.36,1.76-.2.32-.27.7-.21,1.07l1.07,6.6c.08.5.4.93.85,1.16.46.23.99.22,1.44-.02,1.02-.54,1.95-1.23,2.76-2.04,2.6-2.6,3.81-6.32,3.22-9.95-.49-3.03-2.13-5.69-4.62-7.49-1.35-.97-2.85-1.62-4.43-1.94l-.39-2.07,4.94-.81-4.03-20.24c-.39-1.94-1.55-4.92-2.58-6.62,0,0-6.36-10.45-8.95-14.27-2.6-3.83-5.64-4.69-10.82-3.64h0ZM163.28,122.71c.43,2.69-.5,5.45-2.46,7.34l-.58-3.57c.5-1.05.67-2.22.49-3.36-.5-3.13-3.47-5.27-6.6-4.76-1.2.2-2.29.75-3.15,1.61-1.3,1.31-1.91,3.17-1.61,4.99.18,1.13.71,2.19,1.52,3.03l.58,3.58c-2.43-1.16-4.21-3.45-4.65-6.2-.43-2.64.45-5.34,2.34-7.24,1.24-1.25,2.82-2.05,4.56-2.33,2.2-.36,4.4.17,6.21,1.47,1.81,1.3,3,3.23,3.36,5.43h0ZM154.1,112.6c-.3.03-.59.05-.88.1-.66.11-1.29.28-1.91.49l-.28-1.5,2.82-.46.26,1.37h0ZM143.72,70.54c2.52,3.72,8.8,14.04,8.86,14.15.85,1.39,1.86,4,2.18,5.6l3.4,17.05-11.19,1.83-7.75-41.3c2.25.03,3.34.97,4.5,2.67h0Z"/>
    <path class="st0" d="M103.42,39.24c.65,0,1.24-.27,1.67-.69s.69-1.02.69-1.68c0-1.31-1.07-2.36-2.37-2.36h-.18c-1.31,0-2.36,1.07-2.36,2.37,0,1.31,1.07,2.36,2.37,2.36,0,0,.18,0,.18,0Z"/>
    <path class="st0" d="M115.87,34.51c-1.31,0-2.36,1.05-2.37,2.36,0,1.31,1.05,2.36,2.36,2.37h.18c.65,0,1.25-.26,1.68-.69.43-.43.69-1.01.69-1.67,0-1.31-1.05-2.36-2.36-2.37h-.18,0Z"/>
    <path class="st0" d="M115.54,42.92h0c-1.58,1.58-3.67,2.44-5.9,2.44s-4.32-.87-5.9-2.44c-.61-.61-1.61-.61-2.23,0s-.61,1.61,0,2.23c2.17,2.17,5.06,3.37,8.13,3.37s5.96-1.2,8.13-3.37h0c.61-.61.61-1.61,0-2.23s-1.61-.61-2.22,0h0Z"/>
    <path class="st0" d="M60.33,134.24c.46-.22.77-.66.85-1.16l1.07-6.6c.06-.37-.02-.75-.21-1.07-.23-.38-.49-1-.36-1.76.22-1.37,1.63-2.38,2.99-2.16,1.42.23,2.39,1.57,2.16,2.99-.1.6-.42,1.15-.89,1.55-.29.24-.48.58-.54.95l-1.07,6.6c-.08.5.08,1.01.44,1.37s.87.52,1.37.44c2.38-.4,4.54-1.51,6.25-3.23h0c1.71-1.71,2.82-3.88,3.21-6.28.71-4.45-1.25-8.72-4.68-11.18l.47-2.5,3.47.57,8.92-47.64c-4.26-.86-7.08-.44-9.38,1.87-.5.5-.97,1.09-1.44,1.77-2.59,3.83-8.94,14.27-8.94,14.27-1.03,1.69-2.19,4.67-2.58,6.62l-4.02,20.25,4.94.81-.39,2.08c-2.18.45-4.22,1.52-5.83,3.13-1.71,1.72-2.83,3.89-3.21,6.29-.79,4.87,1.62,9.69,5.99,11.99.46.24.99.24,1.45.02h0ZM64.52,90.29c.32-1.6,1.34-4.21,2.18-5.6.06-.1,6.34-10.43,8.86-14.15.35-.52.71-.95,1.05-1.31.81-.81,1.75-1.33,3.44-1.36l-7.73,41.29-11.19-1.83,3.39-17.05h0ZM68.27,111.7l-.28,1.5c-.61-.21-1.25-.38-1.91-.49-.3-.05-.59-.06-.89-.09l.26-1.39,2.82.46h0ZM56.02,122.73c.28-1.74,1.09-3.32,2.33-4.57,1.89-1.89,4.6-2.77,7.23-2.34,4.54.73,7.64,5.02,6.91,9.56-.44,2.68-2.21,5.03-4.65,6.2l.57-3.57c.81-.85,1.34-1.89,1.52-3.03.51-3.13-1.63-6.09-4.77-6.6-1.82-.3-3.69.31-4.99,1.62-.86.86-1.42,1.95-1.61,3.15-.18,1.13,0,2.3.49,3.35l-.57,3.58c-1.94-1.86-2.91-4.59-2.46-7.34h0Z"/>
  </g>
  <g>
    <path class="st1" d="M259.91,17.04v-5.54c0-.92-.75-1.67-1.67-1.67h-16.5c-.46,0-.88.19-1.18.49-.3.3-.49.72-.49,1.18v5.55h-2.37c-2.57,0-4.91,1.05-6.6,2.75-1.69,1.7-2.75,4.04-2.75,6.6v20.97c0,4.72,3.56,8.61,8.12,9.22v3.73h-9.02c-.57,0-1.13.26-1.53.67-.3.3-.53.69-.6,1.1l-10.15,54.16c-.18.97.48,1.77,1.47,1.77h1.8v53.2s-.89,0-.89,0v18.94h31.56v-38.44h1.8v38.44h31.56v-18.93h-.9v-53.2s1.8,0,1.8,0c.44,0,.82-.16,1.09-.43.32-.32.48-.81.38-1.35l-10.16-54.16c-.18-.97-1.14-1.77-2.14-1.77h-9.02v-3.73c2.07-.28,3.95-1.21,5.37-2.62,1.69-1.69,2.75-4.03,2.75-6.6v-20.97c0-5.14-4.21-9.35-9.36-9.35h-2.37,0ZM248.21,148.58v-20.63h3.6v20.63h-3.6ZM220.71,187.02v-12.18h25.26v12.18h-25.26s0,0,0,0ZM245.96,151.83v19.4h-24.36v-43.28h23v23.78l1.36.1ZM254.07,187.01v-12.18h25.26v12.18h-25.26ZM278.43,171.23h-24.36v-19.39l1.36-.1v-23.78h23v43.28s0,0,0,0ZM278.42,124.34h-56.82s0-6.3,0-6.3h56.82s0,6.3,0,6.3h0ZM281.29,114.42h-62.57s9.55-50.95,9.55-50.95h43.46s9.56,50.94,9.56,50.94h0ZM243.22,12.98h13.54v4.06h-13.54s0-4.06,0-4.06ZM239.62,57.26h20.75s0,2.81,0,2.81h-20.75s0-2.81,0-2.81h0ZM268.49,26.39v20.98c0,1.65-.65,3.2-1.82,4.38s-2.73,1.82-4.38,1.83h-24.58c-3.42,0-6.2-2.78-6.2-6.2v-20.97c0-1.65.65-3.2,1.82-4.38,1.17-1.17,2.73-1.82,4.38-1.82h24.58c3.42,0,6.21,2.78,6.21,6.2h0Z"/>
    <rect class="st1" x="223.3" y="148.92" width="17.28" height="3.15"/>
    <rect class="st1" x="259.43" y="148.9" width="17.28" height="3.15"/>
    <path class="st1" d="M275.87,65.13l8.94,47.63,3.47-.57.47,2.49c-.52.37-1.01.77-1.46,1.23-2.6,2.61-3.81,6.33-3.22,9.96.79,4.87,4.59,8.69,9.46,9.5.5.08,1.01-.08,1.37-.44h0c.36-.36.52-.87.44-1.37l-1.07-6.6c-.06-.37-.25-.71-.54-.95-.34-.29-.77-.79-.9-1.56-.22-1.36.79-2.77,2.16-2.99,1.42-.23,2.76.74,2.99,2.16.12.77-.13,1.38-.36,1.76-.2.32-.27.7-.21,1.07l1.07,6.6c.08.5.4.93.85,1.16.46.23.99.22,1.44-.02,1.02-.54,1.95-1.23,2.76-2.04,2.6-2.6,3.81-6.32,3.22-9.95-.49-3.03-2.13-5.69-4.62-7.49-1.35-.97-2.85-1.62-4.43-1.94l-.39-2.07,4.94-.81-4.03-20.24c-.39-1.94-1.55-4.92-2.58-6.62,0,0-6.36-10.45-8.95-14.27-2.6-3.83-5.64-4.69-10.82-3.64h0ZM303.64,122.71c.43,2.69-.5,5.45-2.46,7.34l-.58-3.57c.5-1.05.67-2.22.49-3.36-.5-3.13-3.47-5.27-6.6-4.76-1.2.2-2.29.75-3.15,1.61-1.3,1.31-1.91,3.17-1.61,4.99.18,1.13.71,2.19,1.52,3.03l.58,3.58c-2.43-1.16-4.21-3.45-4.65-6.2-.43-2.64.45-5.34,2.34-7.24,1.24-1.25,2.82-2.05,4.56-2.33,2.2-.36,4.4.17,6.21,1.47,1.81,1.3,3,3.23,3.36,5.43h0ZM294.46,112.6c-.3.03-.59.05-.88.1-.66.11-1.29.28-1.91.49l-.28-1.5,2.82-.46.26,1.37h0ZM284.08,70.54c2.52,3.72,8.8,14.04,8.86,14.15.85,1.39,1.86,4,2.18,5.6l3.4,17.05-11.19,1.83-7.75-41.3c2.25.03,3.34.97,4.5,2.67h0Z"/>
    <path class="st1" d="M243.78,39.24c.65,0,1.24-.27,1.67-.69s.69-1.02.69-1.68c0-1.31-1.07-2.36-2.37-2.36h-.18c-1.31,0-2.36,1.07-2.36,2.37,0,1.31,1.07,2.36,2.37,2.36h.18Z"/>
    <path class="st1" d="M256.22,34.51c-1.31,0-2.36,1.05-2.37,2.36,0,1.31,1.05,2.36,2.36,2.37h.18c.65,0,1.25-.26,1.68-.69.43-.43.69-1.01.69-1.67,0-1.31-1.05-2.36-2.36-2.37h-.18Z"/>
    <path class="st1" d="M255.89,42.92h0c-1.58,1.58-3.67,2.44-5.9,2.44s-4.32-.87-5.9-2.44c-.61-.61-1.61-.61-2.23,0s-.61,1.61,0,2.23c2.17,2.17,5.06,3.37,8.13,3.37s5.96-1.2,8.13-3.37h0c.61-.61.61-1.61,0-2.23s-1.61-.61-2.22,0h0Z"/>
    <path class="st1" d="M200.69,134.24c.46-.22.77-.66.85-1.16l1.07-6.6c.06-.37-.02-.75-.21-1.07-.23-.38-.49-1-.36-1.76.22-1.37,1.63-2.38,2.99-2.16,1.42.23,2.39,1.57,2.16,2.99-.1.6-.42,1.15-.89,1.55-.29.24-.48.58-.54.95l-1.07,6.6c-.08.5.08,1.01.44,1.37s.87.52,1.37.44c2.38-.4,4.54-1.51,6.25-3.23h0c1.71-1.71,2.82-3.88,3.21-6.28.71-4.45-1.25-8.72-4.68-11.18l.47-2.5,3.47.57,8.92-47.64c-4.26-.86-7.08-.44-9.38,1.87-.5.5-.97,1.09-1.44,1.77-2.59,3.83-8.94,14.27-8.94,14.27-1.03,1.69-2.19,4.67-2.58,6.62l-4.02,20.25,4.94.81-.39,2.08c-2.18.45-4.22,1.52-5.83,3.13-1.71,1.72-2.83,3.89-3.21,6.29-.79,4.87,1.62,9.69,5.99,11.99.46.24.99.24,1.45.02h0ZM204.88,90.29c.32-1.6,1.34-4.21,2.18-5.6.06-.1,6.34-10.43,8.86-14.15.35-.52.71-.95,1.05-1.31.81-.81,1.75-1.33,3.44-1.36l-7.73,41.29-11.19-1.83,3.39-17.05h0ZM208.63,111.7l-.28,1.5c-.61-.21-1.25-.38-1.91-.49-.3-.05-.59-.06-.89-.09l.26-1.39,2.82.46h0ZM196.37,122.73c.28-1.74,1.09-3.32,2.33-4.57,1.89-1.89,4.6-2.77,7.23-2.34,4.54.73,7.64,5.02,6.91,9.56-.44,2.68-2.21,5.03-4.65,6.2l.57-3.57c.81-.85,1.34-1.89,1.52-3.03.51-3.13-1.63-6.09-4.77-6.6-1.82-.3-3.69.31-4.99,1.62-.86.86-1.42,1.95-1.61,3.15-.18,1.13,0,2.3.49,3.35l-.57,3.58c-1.94-1.86-2.91-4.59-2.46-7.34h0Z"/>
  </g>
  <g>
    <path class="st2" d="M400.27,17.04v-5.54c0-.92-.75-1.67-1.67-1.67h-16.5c-.46,0-.88.19-1.18.49-.3.3-.49.72-.49,1.18v5.55h-2.37c-2.57,0-4.91,1.05-6.6,2.75-1.69,1.7-2.75,4.04-2.75,6.6v20.97c0,4.72,3.56,8.61,8.12,9.22v3.73h-9.02c-.57,0-1.13.26-1.53.67-.3.3-.53.69-.6,1.1l-10.15,54.16c-.18.97.48,1.77,1.47,1.77h1.8v53.2s-.89,0-.89,0v18.94h31.56v-38.44h1.8v38.44h31.56v-18.93h-.9v-53.2s1.8,0,1.8,0c.44,0,.82-.16,1.09-.43.32-.32.48-.81.38-1.35l-10.16-54.16c-.18-.97-1.14-1.77-2.14-1.77h-9.02v-3.73c2.07-.28,3.95-1.21,5.37-2.62,1.69-1.69,2.75-4.03,2.75-6.6v-20.97c0-5.14-4.21-9.35-9.36-9.35h-2.37,0ZM388.57,148.58v-20.63h3.6v20.63h-3.6ZM361.06,187.02v-12.18h25.26v12.18h-25.26s0,0,0,0ZM386.32,151.83v19.4h-24.36v-43.28h23v23.78l1.36.1ZM394.43,187.01v-12.18h25.26v12.18h-25.26ZM418.78,171.23h-24.36v-19.39l1.36-.1v-23.78h23v43.28s0,0,0,0ZM418.77,124.34h-56.82s0-6.3,0-6.3h56.82s0,6.3,0,6.3h0ZM421.65,114.42h-62.57s9.55-50.95,9.55-50.95h43.46s9.56,50.94,9.56,50.94h0ZM383.58,12.98h13.54v4.06h-13.54s0-4.06,0-4.06ZM379.98,57.26h20.75s0,2.81,0,2.81h-20.75s0-2.81,0-2.81ZM408.84,26.39v20.98c0,1.65-.65,3.2-1.82,4.38s-2.73,1.82-4.38,1.83h-24.58c-3.42,0-6.2-2.78-6.2-6.2v-20.97c0-1.65.65-3.2,1.82-4.38,1.17-1.17,2.73-1.82,4.38-1.82h24.58c3.42,0,6.21,2.78,6.21,6.2h0Z"/>
    <rect class="st2" x="363.67" y="148.92" width="17.28" height="3.15"/>
    <rect class="st2" x="399.78" y="148.9" width="17.28" height="3.15"/>
    <path class="st2" d="M416.22,65.13l8.94,47.63,3.47-.57.47,2.49c-.52.37-1.01.77-1.46,1.23-2.6,2.61-3.81,6.33-3.22,9.96.79,4.87,4.59,8.69,9.46,9.5.5.08,1.01-.08,1.37-.44h0c.36-.36.52-.87.44-1.37l-1.07-6.6c-.06-.37-.25-.71-.54-.95-.34-.29-.77-.79-.9-1.56-.22-1.36.79-2.77,2.16-2.99,1.42-.23,2.76.74,2.99,2.16.12.77-.13,1.38-.36,1.76-.2.32-.27.7-.21,1.07l1.07,6.6c.08.5.4.93.85,1.16.46.23.99.22,1.44-.02,1.02-.54,1.95-1.23,2.76-2.04,2.6-2.6,3.81-6.32,3.22-9.95-.49-3.03-2.13-5.69-4.62-7.49-1.35-.97-2.85-1.62-4.43-1.94l-.39-2.07,4.94-.81-4.03-20.24c-.39-1.94-1.55-4.92-2.58-6.62,0,0-6.36-10.45-8.95-14.27-2.6-3.83-5.64-4.69-10.82-3.64h0ZM444,122.71c.43,2.69-.5,5.45-2.46,7.34l-.58-3.57c.5-1.05.67-2.22.49-3.36-.5-3.13-3.47-5.27-6.6-4.76-1.2.2-2.29.75-3.15,1.61-1.3,1.31-1.91,3.17-1.61,4.99.18,1.13.71,2.19,1.52,3.03l.58,3.58c-2.43-1.16-4.21-3.45-4.65-6.2-.43-2.64.45-5.34,2.34-7.24,1.24-1.25,2.82-2.05,4.56-2.33,2.2-.36,4.4.17,6.21,1.47,1.81,1.3,3,3.23,3.36,5.43h0ZM434.82,112.6c-.3.03-.59.05-.88.1-.66.11-1.29.28-1.91.49l-.28-1.5,2.82-.46.26,1.37h0ZM424.44,70.54c2.52,3.72,8.8,14.04,8.86,14.15.85,1.39,1.86,4,2.18,5.6l3.4,17.05-11.19,1.83-7.75-41.3c2.25.03,3.34.97,4.5,2.67h0Z"/>
    <path class="st2" d="M384.14,39.24c.65,0,1.24-.27,1.67-.69s.69-1.02.69-1.68c0-1.31-1.07-2.36-2.37-2.36h-.18c-1.31,0-2.36,1.07-2.36,2.37,0,1.31,1.07,2.36,2.37,2.36h.18Z"/>
    <path class="st2" d="M396.58,34.51c-1.31,0-2.36,1.05-2.37,2.36,0,1.31,1.05,2.36,2.36,2.37h.18c.65,0,1.25-.26,1.68-.69.43-.43.69-1.01.69-1.67,0-1.31-1.05-2.36-2.36-2.37h-.18Z"/>
    <path class="st2" d="M396.25,42.92h0c-1.58,1.58-3.67,2.44-5.9,2.44s-4.32-.87-5.9-2.44c-.61-.61-1.61-.61-2.23,0s-.61,1.61,0,2.23c2.17,2.17,5.06,3.37,8.13,3.37s5.96-1.2,8.13-3.37h0c.61-.61.61-1.61,0-2.23s-1.61-.61-2.22,0h0Z"/>
    <path class="st2" d="M341.05,134.24c.46-.22.77-.66.85-1.16l1.07-6.6c.06-.37-.02-.75-.21-1.07-.23-.38-.49-1-.36-1.76.22-1.37,1.63-2.38,2.99-2.16,1.42.23,2.39,1.57,2.16,2.99-.1.6-.42,1.15-.89,1.55-.29.24-.48.58-.54.95l-1.07,6.6c-.08.5.08,1.01.44,1.37s.87.52,1.37.44c2.38-.4,4.54-1.51,6.25-3.23h0c1.71-1.71,2.82-3.88,3.21-6.28.71-4.45-1.25-8.72-4.68-11.18l.47-2.5,3.47.57,8.92-47.64c-4.26-.86-7.08-.44-9.38,1.87-.5.5-.97,1.09-1.44,1.77-2.59,3.83-8.94,14.27-8.94,14.27-1.03,1.69-2.19,4.67-2.58,6.62l-4.02,20.25,4.94.81-.39,2.08c-2.18.45-4.22,1.52-5.83,3.13-1.71,1.72-2.83,3.89-3.21,6.29-.79,4.87,1.62,9.69,5.99,11.99.46.24.99.24,1.45.02h0ZM345.24,90.29c.32-1.6,1.34-4.21,2.18-5.6.06-.1,6.34-10.43,8.86-14.15.35-.52.71-.95,1.05-1.31.81-.81,1.75-1.33,3.44-1.36l-7.73,41.29-11.19-1.83,3.39-17.05h0ZM348.99,111.7l-.28,1.5c-.61-.21-1.25-.38-1.91-.49-.3-.05-.59-.06-.89-.09l.26-1.39,2.82.46h0ZM336.73,122.73c.28-1.74,1.09-3.32,2.33-4.57,1.89-1.89,4.6-2.77,7.23-2.34,4.54.73,7.64,5.02,6.91,9.56-.44,2.68-2.21,5.03-4.65,6.2l.57-3.57c.81-.85,1.34-1.89,1.52-3.03.51-3.13-1.63-6.09-4.77-6.6-1.82-.3-3.69.31-4.99,1.62-.86.86-1.42,1.95-1.61,3.15-.18,1.13,0,2.3.49,3.35l-.57,3.58c-1.94-1.86-2.91-4.59-2.46-7.34h0Z"/>
  </g>
</svg>